<?xml version="1.0" standalone="no"?><!DOCTYPE svg PUBLIC "-//W3C//DTD SVG 1.1//EN" "http://www.w3.org/Graphics/SVG/1.1/DTD/svg11.dtd"><svg class="icon" width="200px" height="200.00px" viewBox="0 0 1024 1024" version="1.1" xmlns="http://www.w3.org/2000/svg"><path fill="#ffffff" d="M61.95328 888.704A30.272 30.272 0 0 1 32.00128 858.112a260.48 260.48 0 0 1 119.872-220.416l-1.344-333.76C150.52928 101.056 312.19328 0 510.97728 0c198.72 0 360.512 101.056 360.512 304l-1.408 333.696a260.48 260.48 0 0 1 119.872 220.48c0 16.896-13.44 30.528-30.08 30.528H62.01728z m865.664-61.248a197.824 197.824 0 0 0-101.504-144.96 30.72 30.72 0 0 1-16-27.072l1.344-351.488c0-169.152-134.784-242.688-300.48-242.688-165.76 0-300.416 73.6-300.416 242.688l1.28 351.488c0 11.328-6.144 21.76-16 27.008a198.4 198.4 0 0 0-101.568 145.024h833.344zM510.97728 1011.072c-112 0-199.808-65.216-199.808-148.48 0-16.96 13.44-30.592 30.016-30.592s30.08 13.632 30.08 30.592c0 47.36 64 87.232 139.712 87.232 75.776 0 139.776-39.872 139.776-87.232 0-16.96 13.376-30.592 29.952-30.592s30.08 13.632 30.08 30.592c0 83.264-87.808 148.48-199.808 148.48z" /></svg>