<?xml version="1.0" standalone="no"?><!DOCTYPE svg PUBLIC "-//W3C//DTD SVG 1.1//EN" "http://www.w3.org/Graphics/SVG/1.1/DTD/svg11.dtd"><svg class="icon" width="200px" height="200.00px" viewBox="0 0 1024 1024" version="1.1" xmlns="http://www.w3.org/2000/svg"><path fill="#ffffff" d="M716.8 431.542857c-34.133333-39.009524-80.457143-68.266667-131.657143-82.895238l-56.07619-102.4L572.952381 170.666667H853.333333l-136.533333 260.87619zM512 338.895238c-78.019048 0-151.161905 31.695238-202.361905 90.209524L170.666667 170.666667h280.380952l87.771429 170.666666c-9.752381-2.438095-17.066667-2.438095-26.819048-2.438095z m0 34.133333c131.657143 0 238.933333 107.27619 238.933333 238.933334s-107.27619 238.933333-238.933333 238.933333-238.933333-107.27619-238.933333-238.933333 107.27619-238.933333 238.933333-238.933334z m-90.209524 368.152381l90.209524-46.323809 90.209524 46.323809-17.066667-99.961904 73.142857-70.704762-99.961904-14.628572-46.32381-87.771428-43.885714 90.209524-99.961905 14.628571 73.142857 70.704762-19.504762 97.523809z m0 0" /></svg>